ply
format ascii 1.0
element vertex 1311
property float x
property float y
property float z
property uchar red
property uchar green
property uchar blue
end_header
0.0000 0.0000 10.0000 0 255 0
0.0175 0.1993 10.0000 0 254 0
-0.2786 0.0493 10.0000 0 254 0
0.2669 0.1698 10.0000 0 254 0
-0.1725 0.3322 10.0000 0 254 0
0.1897 0.4054 10.0000 0 254 0
-0.4243 0.2459 10.0000 0 254 0
0.4985 0.1096 10.0000 0 254 0
-0.0705 0.5438 10.0000 0 254 0
0.4259 0.4238 10.0000 0 254 0
-0.4058 0.4863 10.0000 0 254 0
0.1491 0.6628 10.0000 0 254 0
-0.6749 0.2153 10.0000 0 254 0
0.6559 0.3030 10.0000 0 254 0
-0.2538 0.7056 10.0000 0 254 0
0.4268 0.6638 10.0000 0 254 0
-0.6439 0.4987 10.0000 0 254 0
0.8239 0.0683 10.0000 0 254 0
0.0042 0.8508 10.0000 0 254 0
-0.8705 0.0807 10.0000 0 254 0
0.7056 0.5355 10.0000 0 254 0
-0.4838 0.7688 10.0000 0 254 0
0.3272 0.8825 10.0000 0 254 0
-0.8698 0.4122 10.0000 0 254 0
0.9298 0.2867 10.0000 1 253 0
-0.2086 0.9715 10.0000 1 253 0
0.6636 0.7796 10.0000 1 253 0
-0.7324 0.7432 10.0000 1 253 0
0.1482 1.0620 10.0000 1 253 0
-1.0633 0.2446 10.0000 1 253 0
0.9574 0.5424 10.0000 1 253 0
-0.4643 1.0179 10.0000 1 253 0
0.5380 1.0116 10.0000 1 253 0
-0.9755 0.6340 10.0000 1 253 0
1.1562 0.1929 10.0000 1 253 0
-0.0925 1.1859 10.0000 1 253 0
-1.2065 0.0118 10.0000 1 253 0
0.9038 0.8119 10.0000 1 253 0
-0.7399 0.9847 10.0000 1 253 0
0.3380 1.2101 10.0000 1 253 0
-1.1910 0.4481 10.0000 1 253 0
1.1884 0.4770 10.0000 1 253 0
-0.3760 1.2408 10.0000 1 253 0
0.7697 1.0724 10.0000 1 253 0
-1.0127 0.8706 10.0000 1 253 0
1.3425 0.0425 10.0000 1 253 0
0.0760 1.3562 10.0000 1 253 0
-1.3593 0.1964 10.0000 2 252 0
1.1411 0.7776 10.0000 2 252 0
-0.6821 1.2177 10.0000 2 252 0
0.5600 1.3024 10.0000 2 252 0
-1.2611 0.6786 10.0000 2 252 0
1.3953 0.3534 10.0000 2 252 0
-0.2323 1.4349 10.0000 2 252 0
1.0119 1.0728 10.0000 2 252 0
-0.9894 1.1123 10.0000 2 252 0
0.2845 1.4823 10.0000 2 252 0
-1.4649 0.4168 10.0000 2 252 0
1.3678 0.6851 10.0000 2 252 0
-0.5680 1.4350 10.0000 2 252 0
0.8036 1.3410 10.0000 2 252 0
-1.2763 0.9254 10.0000 2 252 0
1.5728 0.1805 10.0000 2 252 0
-0.0426 1.5956 10.0000 2 252 0
-1.6061 0.0978 10.0000 2 252 0
1.2554 1.0169 10.0000 2 252 0
-0.9103 1.3502 10.0000 2 252 0
0.5236 1.5620 10.0000 2 252 0
-1.5218 0.6633 10.0000 2 252 0
1.5760 0.5411 10.0000 2 252 0
-0.4041 1.6294 10.0000 2 252 0
1.0587 1.3266 10.0000 3 251 0
-1.2378 1.1791 10.0000 3 251 0
0.1845 1.7179 10.0000 3 251 0
-1.7070 0.3364 10.0000 3 251 0
1.4911 0.9081 10.0000 3 251 0
-0.7797 1.5754 10.0000 3 251 0
0.7838 1.5932 10.0000 3 251 0
-1.5287 0.9261 10.0000 3 251 0
1.7585 0.3508 10.0000 3 251 0
-0.1971 1.7941 10.0000 3 251 0
1.3165 1.2599 10.0000 3 251 0
-1.1473 1.4305 10.0000 3 251 0
0.4414 1.7974 10.0000 3 251 0
-1.7627 0.6003 10.0000 3 251 0
1.7105 0.7503 10.0000 3 251 0
-0.6013 1.7802 10.0000 3 251 0
1.0562 1.5743 10.0000 3 251 0
-1.4846 1.1968 10.0000 3 251 0
1.9086 0.1209 10.0000 3 251 0
0.0468 1.9229 10.0000 3 251 0
-1.9223 0.2161 10.0000 3 251 0
1.5677 1.1425 10.0000 3 251 0
-1.0066 1.6709 10.0000 4 250 0
0.7194 1.8306 10.0000 4 250 0
-1.7703 0.8816 10.0000 4 250 0
1.9060 0.5472 10.0000 4 250 0
-0.3806 1.9570 10.0000 4 250 0
1.3321 1.5046 10.0000 4 250 0
-1.3897 1.4661 10.0000 4 250 0
0.3206 2.0104 10.0000 4 250 0
-1.9848 0.4975 10.0000 4 250 0
1.8041 0.9765 10.0000 4 250 0
-0.8191 1.8921 10.0000 4 250 0
1.0107 1.8148 10.0000 4 250 0
-1.7279 1.1713 10.0000 4 250 0
2.0704 0.3039 10.0000 4 250 0
-0.1228 2.0991 10.0000 4 250 0
-2.1119 0.0616 10.0000 4 250 0
1.6029 1.3842 10.0000 4 250 0
-1.2450 1.7257 10.0000 4 250 0
0.6168 2.0523 10.0000 4 250 0
-1.9999 0.7971 10.0000 4 250 0
2.0179 0.7646 10.0000 4 250 0
-0.5878 2.0866 10.0000 4 250 0
1.3070 1.7480 10.0000 5 249 0
-1.6342 1.4615 10.0000 5 249 0
2.1971 0.0266 10.0000 5 249 0
0.1665 2.2008 10.0000 5 249 0
-2.1873 0.3599 10.0000 5 249 0
1.8599 1.2150 10.0000 5 249 0
-1.0522 1.9676 10.0000 5 249 0
0.9272 2.0453 10.0000 5 249 0
-1.9647 1.1073 10.0000 5 249 0
2.2013 0.5120 10.0000 5 249 0
-0.3188 2.2470 10.0000 5 249 0
1.5992 1.6304 10.0000 5 249 0
-1.4904 1.7428 10.0000 5 249 0
0.4791 2.2570 10.0000 5 249 0
-2.2154 0.6774 10.0000 5 249 0
2.0953 0.9991 10.0000 5 249 0
-0.8153 2.1833 10.0000 5 249 0
1.2439 1.9873 10.0000 5 249 0
-1.8782 1.4186 10.0000 5 249 0
2.3477 0.2234 10.0000 5 249 0
-0.0172 2.3675 10.0000 5 249 0
-2.3690 0.1907 10.0000 5 249 0
1.8791 1.4626 10.0000 5 249 0
-1.2976 2.0075 10.0000 6 248 0
0.8081 2.2641 10.0000 6 248 0
-2.1929 1.0069 10.0000 6 248 0
2.3013 0.7405 10.0000 6 248 0
-0.5383 2.3660 10.0000 6 248 0
1.5587 1.8772 10.0000 6 248 0
-1.7400 1.7232 10.0000 6 248 0
0.3104 2.4426 10.0000 6 248 0
-2.4147 0.5248 10.0000 6 248 0
2.1390 1.2461 10.0000 6 248 0
-1.0585 2.2475 10.0000 6 248 0
1.1461 2.2190 10.0000 6 248 0
-2.1179 1.3400 10.0000 6 248 0
2.4712 0.4430 10.0000 6 248 0
-0.2259 2.5092 10.0000 6 248 0
1.8633 1.7149 10.0000 6 248 0
-1.5506 2.0131 10.0000 6 248 0
0.6574 2.4679 10.0000 6 248 0
-2.4092 0.8731 10.0000 6 248 0
2.3704 0.9849 10.0000 6 248 0
-0.7764 2.4556 10.0000 6 248 0
1.4836 2.1208 10.0000 7 247 0
-1.9894 1.6689 10.0000 7 247 0
2.5985 0.1136 10.0000 7 247 0
0.1145 2.6069 10.0000 7 247 0
-2.5953 0.3432 10.0000 7 247 0
2.1488 1.5027 10.0000 7 247 0
-1.3131 2.2793 10.0000 7 247 0
1.0146 2.4406 10.0000 7 247 0
-2.3499 1.2281 10.0000 7 247 0
2.5663 0.6831 10.0000 7 247 0
-0.4574 2.6244 10.0000 7 247 0
1.8128 1.9690 10.0000 7 247 0
-1.8085 1.9842 10.0000 7 247 0
0.4764 2.6547 10.0000 7 247 0
-2.6108 0.7089 10.0000 7 247 0
2.4075 1.2429 10.0000 7 247 0
-1.0307 2.5146 10.0000 7 247 0
1.3745 2.3586 10.0000 7 247 0
-2.2360 1.5803 10.0000 7 247 0
2.7202 0.3459 10.0000 7 247 0
-0.1069 2.7481 10.0000 7 247 0
-2.7551 0.1343 10.0000 7 247 0
2.1251 1.7648 10.0000 7 247 0
-1.5767 2.2780 10.0000 8 246 0
0.8521 2.6488 10.0000 8 246 0
-2.5716 1.0836 10.0000 8 246 0
2.6321 0.9390 10.0000 8 246 0
-0.7078 2.7117 10.0000 8 246 0
1.7291 2.2207 10.0000 8 246 0
-2.0673 1.9217 10.0000 8 246 0
0.2689 2.8216 10.0000 8 246 0
-2.7952 0.5155 10.0000 8 246 0
2.4129 1.5097 10.0000 8 246 0
-1.2965 2.5427 10.0000 8 246 0
1.2340 2.5867 10.0000 8 246 0
-2.4759 1.4590 10.0000 8 246 0
2.8151 0.5971 10.0000 8 246 0
-0.3495 2.8643 10.0000 8 246 0
2.0687 2.0284 10.0000 8 246 0
-1.8446 2.2443 10.0000 8 246 0
0.6612 2.8407 10.0000 8 246 0
-2.7793 0.9096 10.0000 8 246 0
2.6670 1.2092 10.0000 8 246 0
-0.9732 2.7700 10.0000 9 245 0
1.6118 2.4678 10.0000 9 245 0
-2.3230 1.8268 10.0000 9 245 0
2.9507 0.2227 10.0000 9 245 0
0.0357 2.9665 10.0000 9 245 0
-2.9595 0.2965 10.0000 9 245 0
2.3854 1.7830 10.0000 9 245 0
-1.5722 2.5384 10.0000 9 245 0
1.0625 2.8026 10.0000 9 245 0
-2.7060 1.3062 10.0000 9 245 0
2.8816 0.8647 10.0000 9 245 0
-0.6116 2.9535 10.0000 9 245 0
1.9797 2.2905 10.0000 9 245 0
-2.1143 2.1773 10.0000 9 245 0
0.4437 3.0138 10.0000 9 245 0
-2.9709 0.7067 10.0000 9 245 0
2.6711 1.4878 10.0000 9 245 0
-1.2508 2.7981 10.0000 9 245 0
1.4641 2.7054 10.0000 9 245 0
-2.5727 1.6999 10.0000 9 245 0
3.0489 0.4853 10.0000 9 245 0
-0.2180 3.0870 10.0000 9 245 0
-3.1017 0.0538 10.0000 10 244 0
2.3259 2.0582 10.0000 10 244 0
-1.8518 2.5026 10.0000 10 244 0
0.8630 3.0027 10.0000 10 244 0
-2.9229 1.1242 10.0000 10 244 0
2.9179 1.1470 10.0000 10 244 0
-0.8887 3.0144 10.0000 10 244 0
1.8572 2.5487 10.0000 10 244 0
-2.3815 2.0784 10.0000 10 244 0
3.1636 0.0765 10.0000 10 244 0
0.2002 3.1655 10.0000 10 244 0
-3.1429 0.4782 10.0000 10 244 0
2.6434 1.7727 10.0000 10 244 0
-1.5388 2.7943 10.0000 10 244 0
1.2862 2.9311 10.0000 10 244 0
-2.8140 1.5405 10.0000 10 244 0
3.1190 0.7661 10.0000 10 244 0
-0.4907 3.1813 10.0000 10 244 0
2.2329 2.3335 10.0000 10 244 0
-2.1333 2.4344 10.0000 10 244 0
0.6351 3.1849 10.0000 10 244 0
-3.1238 0.9141 10.0000 11 243 0
2.9239 1.4379 10.0000 11 243 0
-1.1800 3.0449 10.0000 11 243 0
1.7046 2.7978 10.0000 11 243 0
-2.6442 1.9464 10.0000 11 243 0
3.2681 0.3500 10.0000 11 243 0
-0.0638 3.2933 10.0000 11 243 0
-3.2934 0.2243 10.0000 11 243 0
2.5835 2.0605 10.0000 11 243 0
-1.8312 2.7593 10.0000 11 243 0
1.0797 3.1419 10.0000 11 243 0
-3.0421 1.3525 10.0000 11 243 0
3.1600 1.0591 10.0000 11 243 0
-0.7794 3.2475 10.0000 11 243 0
2.1089 2.6033 10.0000 11 243 0
-2.4133 2.3340 10.0000 11 243 0
0.3842 3.3458 10.0000 11 243 0
-3.3060 0.6776 10.0000 11 243 0
2.8983 1.7356 10.0000 11 243 0
-1.4792 3.0449 10.0000 11 243 0
1.5217 3.0356 10.0000 11 243 0
-2.8971 1.7843 10.0000 12 242 0
3.3449 0.6423 10.0000 12 242 0
-0.3471 3.3952 10.0000 12 242 0
2.4901 2.3491 10.0000 12 242 0
-2.1258 2.6920 10.0000 12 242 0
0.8445 3.3352 10.0000 12 242 0
-3.2548 1.1361 10.0000 12 242 0
3.1704 1.3625 10.0000 12 242 0
-1.0829 3.2837 10.0000 12 242 0
1.9534 2.8654 10.0000 12 242 0
-2.6894 2.2002 10.0000 12 242 0
3.4727 0.1948 10.0000 12 242 0
0.1108 3.4832 10.0000 12 242 0
-3.4670 0.4150 10.0000 12 242 0
2.8394 2.0382 10.0000 12 242 0
-1.7847 3.0131 10.0000 12 242 0
1.3081 3.2595 10.0000 12 242 0
-3.1382 1.5921 10.0000 12 242 0
3.3926 0.9471 10.0000 12 242 0
-0.6488 3.4689 10.0000 12 242 0
2.3655 2.6326 10.0000 12 242 0
-2.4208 2.5911 10.0000 13 241 0
0.5857 3.5075 10.0000 13 241 0
-3.4495 0.8911 10.0000 13 241 0
3.1491 1.6734 10.0000 13 241 0
-1.3949 3.2893 10.0000 13 241 0
1.7672 3.1167 10.0000 13 241 0
-2.9562 2.0362 10.0000 13 241 0
3.5585 0.4963 10.0000 13 241 0
-0.1825 3.5949 10.0000 13 241 0
-3.6038 0.1320 10.0000 13 241 0
2.7488 2.3394 10.0000 13 241 0
-2.0931 2.9489 10.0000 13 241 0
1.0686 3.4652 10.0000 13 241 0
-3.3642 1.3710 10.0000 13 241 0
3.4097 1.2631 10.0000 13 241 0
-0.9626 3.5133 10.0000 13 241 0
2.2091 2.9090 10.0000 13 241 0
-2.7101 2.4588 10.0000 13 241 0
3.6625 0.0179 10.0000 13 241 0
0.3040 3.6566 10.0000 13 241 0
-3.6226 0.6229 10.0000 13 241 0
3.0945 1.9898 10.0000 13 241 0
-1.7137 3.2630 10.0000 14 240 0
1.5500 3.3547 10.0000 14 240 0
-3.2115 1.8415 10.0000 14 240 0
3.6151 0.8125 10.0000 14 240 0
-0.4949 3.6787 10.0000 14 240 0
2.6257 2.6375 10.0000 14 240 0
-2.4026 2.8508 10.0000 14 240 0
0.8034 3.6506 10.0000 14 240 0
-3.5728 1.1207 10.0000 14 240 0
3.3943 1.5887 10.0000 14 240 0
-1.2871 3.5267 10.0000 14 240 0
2.0200 3.1760 10.0000 14 240 0
-2.9917 2.2947 10.0000 14 240 0
3.7592 0.3294 10.0000 14 240 0
-0.0003 3.7801 10.0000 14 240 0
-3.7720 0.3319 10.0000 14 240 0
3.0079 2.3055 10.0000 14 240 0
-2.0378 3.2030 10.0000 14 240 0
1.3061 3.5748 10.0000 14 240 0
-3.4531 1.6156 10.0000 14 240 0
3.6411 1.1407 10.0000 14 240 0
-0.8201 3.7330 10.0000 15 239 0
2.4703 2.9290 10.0000 15 239 0
-2.7069 2.7209 10.0000 15 239 0
0.5144 3.8131 10.0000 15 239 0
-3.7599 0.8465 10.0000 15 239 0
3.3468 1.9175 10.0000 15 239 0
-1.6192 3.5079 10.0000 15 239 0
1.8021 3.4283 10.0000 15 239 0
-3.2624 2.0993 10.0000 15 239 0
3.8268 0.6566 10.0000 15 239 0
-0.3208 3.8758 10.0000 15 239 0
-3.8953 0.0204 10.0000 15 239 0
2.8882 2.6186 10.0000 15 239 0
-2.3605 3.1107 10.0000 15 239 0
1.0356 3.7749 10.0000 15 239 0
-3.6761 1.3632 10.0000 15 239 0
3.6343 1.4795 10.0000 15 239 0
-1.1569 3.7561 10.0000 15 239 0
2.2815 3.2118 10.0000 15 239 0
-3.0041 2.5585 10.0000 15 239 0
3.9465 0.1432 10.0000 16 238 0
0.2020 3.9502 10.0000 16 238 0
-3.9235 0.5486 10.0000 16 238 0
3.2660 2.2479 10.0000 16 238 0
-1.9575 3.4551 10.0000 16 238 0
1.5553 3.6641 10.0000 16 238 0
-3.5199 1.8720 10.0000 16 238 0
3.8629 0.9985 10.0000 16 238 0
-0.6568 3.9418 10.0000 16 238 0
2.7341 2.9272 10.0000 16 238 0
-2.6803 2.9850 10.0000 16 238 0
0.7387 3.9527 10.0000 16 238 0
-3.8786 1.0842 10.0000 16 238 0
3.5950 1.8222 10.0000 16 238 0
-1.5040 3.7460 10.0000 16 238 0
2.0632 3.4804 10.0000 16 238 0
-3.2922 2.3625 10.0000 16 238 0
4.0267 0.4806 10.0000 16 238 0
-0.1277 4.0595 10.0000 16 238 0
-4.0613 0.2273 10.0000 16 238 0
3.1516 2.5765 10.0000 16 238 0
-2.2952 3.3694 10.0000 17 237 0
1.2812 3.8802 10.0000 17 237 0
-3.7593 1.6172 10.0000 17 237 0
3.8671 1.3483 10.0000 17 237 0
-1.0054 3.9765 10.0000 17 237 0
2.5488 3.2253 10.0000 17 237 0
-2.9937 2.8261 10.0000 17 237 0
0.4211 4.1046 10.0000 17 237 0
-4.0579 0.7807 10.0000 17 237 0
3.5219 2.1674 10.0000 17 237 0
-1.8546 3.7030 10.0000 17 237 0
1.8151 3.7328 10.0000 17 237 0
-3.5655 2.1369 10.0000 17 237 0
4.0754 0.8338 10.0000 17 237 0
-0.4738 4.1389 10.0000 17 237 0
3.0022 2.9015 10.0000 17 237 0
-2.6308 3.2498 10.0000 17 237 0
0.9794 4.0743 10.0000 17 237 0
-3.9784 1.3349 10.0000 17 237 0
3.8379 1.7047 10.0000 18 236 0
-1.3654 3.9777 10.0000 18 236 0
2.3317 3.5109 10.0000 18 236 0
-3.2988 2.6329 10.0000 18 236 0
4.2139 0.2875 10.0000 18 236 0
0.0833 4.2290 10.0000 18 236 0
-4.2116 0.4526 10.0000 18 236 0
3.4134 2.5133 10.0000 18 236 0
-2.2073 3.6259 10.0000 18 236 0
1.5366 3.9667 10.0000 18 236 0
-3.8221 1.8813 10.0000 18 236 0
4.0918 1.1958 10.0000 18 236 0
-0.8355 4.1865 10.0000 18 236 0
2.8191 3.2179 10.0000 18 236 0
-2.9608 3.0963 10.0000 18 236 0
0.6538 4.2430 10.0000 18 236 0
-4.1746 1.0270 10.0000 18 236 0
3.7734 2.0663 10.0000 18 236 0
-1.7317 3.9447 10.0000 18 236 0
2.0820 3.7818 10.0000 18 236 0
-3.5908 2.4073 10.0000 19 235 0
4.2770 0.6493 10.0000 19 235 0
-0.2741 4.3233 10.0000 19 235 0
-4.3367 0.1043 10.0000 19 235 0
3.2716 2.8532 10.0000 19 235 0
-2.5605 3.5128 10.0000 19 235 0
1.2332 4.1776 10.0000 19 235 0
-4.0597 1.5952 10.0000 19 235 0
4.0744 1.5655 10.0000 19 235 0
-1.2058 4.2011 10.0000 19 235 0
2.6064 3.5197 10.0000 19 235 0
-3.2834 2.9074 10.0000 19 235 0
4.3880 0.0724 10.0000 19 235 0
0.3111 4.3835 10.0000 19 235 0
-4.3455 0.6932 10.0000 19 235 0
3.6759 2.4244 10.0000 19 235 0
-2.0973 3.8786 10.0000 19 235 0
1.8064 4.0320 10.0000 19 235 0
-3.8643 2.1542 10.0000 19 235 0
4.3068 1.0251 10.0000 19 235 0
-0.6420 4.3862 10.0000 19 235 0
3.0940 3.1870 10.0000 20 234 0
-2.9056 3.3675 10.0000 20 234 0
0.9030 4.3641 10.0000 20 234 0
-4.2731 1.2861 10.0000 20 234 0
4.0211 1.9417 10.0000 20 234 0
-1.5856 4.1807 10.0000 20 234 0
2.3584 3.8091 10.0000 20 234 0
-3.5935 2.6852 10.0000 20 234 0
4.4667 0.4459 10.0000 20 234 0
-0.0546 4.4944 10.0000 20 234 0
-4.4879 0.3381 10.0000 20 234 0
3.5410 2.7827 10.0000 20 234 0
-2.4664 3.7752 10.0000 20 234 0
1.4991 4.2623 10.0000 20 234 0
-4.1206 1.8676 10.0000 20 234 0
4.3032 1.4055 10.0000 20 234 0
-1.0261 4.4151 10.0000 20 234 0
2.8858 3.5068 10.0000 20 234 0
-3.2459 3.1848 10.0000 20 234 0
0.5545 4.5223 10.0000 21 233 0
-4.4624 0.9481 10.0000 21 233 0
3.9342 2.3151 10.0000 21 233 0
-1.9656 4.1264 10.0000 21 233 0
2.0836 4.0780 10.0000 21 233 0
-3.8856 2.4344 10.0000 21 233 0
4.5119 0.8328 10.0000 21 233 0
-0.4321 4.5736 10.0000 21 233 0
3.3706 3.1342 10.0000 21 233 0
-2.8282 3.6385 10.0000 21 233 0
1.1655 4.4676 10.0000 21 233 0
-4.3528 1.5569 10.0000 21 233 0
4.2630 1.7959 10.0000 21 233 0
-1.4189 4.4089 10.0000 21 233 0
2.6412 3.8152 10.0000 21 233 0
-3.5747 2.9677 10.0000 21 233 0
4.6435 0.2247 10.0000 21 233 0
0.1814 4.6511 10.0000 21 233 0
-4.6233 0.5872 10.0000 21 233 0
3.8091 2.6902 10.0000 21 233 0
-2.3505 4.0343 10.0000 22 232 0
1.7756 4.3276 10.0000 22 232 0
-4.1613 2.1490 10.0000 22 232 0
4.5233 1.2253 10.0000 22 232 0
-0.8271 4.6186 10.0000 22 232 0
3.1686 3.4723 10.0000 22 232 0
-3.1865 3.4636 10.0000 22 232 0
0.8123 4.6445 10.0000 22 232 0
-4.5615 1.2159 10.0000 22 232 0
4.1861 2.1885 10.0000 22 232 0
-1.8129 4.3681 10.0000 22 232 0
2.3646 4.1057 10.0000 22 232 0
-3.8858 2.7208 10.0000 22 232 0
4.7056 0.6217 10.0000 22 232 0
-0.2091 4.7476 10.0000 22 232 0
-4.7533 0.2107 10.0000 22 232 0
3.6476 3.0594 10.0000 22 232 0
-2.7328 3.9053 10.0000 22 232 0
1.4400 4.5527 10.0000 23 231 0
-4.4150 1.8338 10.0000 23 231 0
4.4976 1.6293 10.0000 23 231 0
-1.2322 4.6280 10.0000 23 231 0
2.9291 3.8000 10.0000 23 231 0
-3.5341 3.2532 10.0000 23 231 0
0.4332 4.7925 10.0000 23 231 0
-4.7420 0.8506 10.0000 23 231 0
4.0746 2.5759 10.0000 23 231 0
-2.2133 4.2888 10.0000 23 231 0
2.0615 4.3732 10.0000 23 231 0
-4.1816 2.4379 10.0000 23 231 0
4.7334 1.0257 10.0000 23 231 0
-0.6096 4.8104 10.0000 23 231 0
3.4533 3.4159 10.0000 23 231 0
-3.1053 3.7425 10.0000 23 231 0
1.0835 4.7495 10.0000 23 231 0
-4.6422 1.4955 10.0000 23 231 0
4.4346 2.0369 10.0000 23 231 0
-1.6397 4.6023 10.0000 24 230 0
2.6561 4.1106 10.0000 24 230 0
-3.8647 3.0118 10.0000 24 230 0
4.8868 0.3928 10.0000 24 230 0
0.0350 4.9081 10.0000 24 230 0
-4.8914 0.4683 10.0000 24 230 0
3.9236 2.9628 10.0000 24 230 0
-2.6122 4.1719 10.0000 24 230 0
1.7253 4.6190 10.0000 24 230 0
-4.4559 2.1241 10.0000 24 230 0
4.7237 1.4427 10.0000 24 230 0
-1.0263 4.8371 10.0000 24 230 0
3.2205 3.7633 10.0000 24 230 0
-3.4719 3.5405 10.0000 24 230 0
0.6995 4.9177 10.0000 24 230 0
-4.8434 1.1271 10.0000 24 230 0
4.3361 2.4403 10.0000 24 230 0
-2.0550 4.5375 10.0000 24 230 0
2.3554 4.3986 10.0000 24 230 0
-4.1810 2.7332 10.0000 25 229 0
4.9323 0.8074 10.0000 25 229 0
-0.3744 4.9895 10.0000 25 229 0
3.7388 3.3378 10.0000 25 229 0
-3.0023 4.0202 10.0000 25 229 0
1.3669 4.8364 10.0000 25 229 0
-4.7040 1.7856 10.0000 25 229 0
4.6762 1.8646 10.0000 25 229 0
-1.4465 4.8278 10.0000 25 229 0
2.9530 4.0944 10.0000 25 229 0
-3.8222 3.3062 10.0000 25 229 0
0.2948 5.0535 10.0000 25 229 0
4.1973 2.8446 10.0000 25 229 0
-2.4703 4.4343 10.0000 25 229 0
2.0203 4.6657 10.0000 25 229 0
-4.4766 2.4222 10.0000 25 229 0
4.9403 1.2366 10.0000 25 229 0
-0.8018 5.0348 10.0000 26 228 0
3.5142 3.7050 10.0000 26 228 0
-3.3880 3.8282 10.0000 26 228 0
0.9793 5.0259 10.0000 26 228 0
-4.9266 1.4155 10.0000 26 228 0
4.5923 2.2836 10.0000 26 228 0
-1.8763 4.7791 10.0000 26 228 0
2.6563 4.4034 10.0000 26 228 0
-4.1594 3.0335 10.0000 26 228 0
-0.1225 5.1549 10.0000 26 228 0
4.0203 3.2420 10.0000 26 228 0
-2.8778 4.2952 10.0000 26 228 0
1.6566 4.9063 10.0000 26 228 0
-4.7461 2.0851 10.0000 26 228 0
4.9097 1.6722 10.0000 26 228 0
-1.2389 5.0422 10.0000 26 228 0
3.2537 4.0569 10.0000 27 227 0
-3.7615 3.5990 10.0000 27 227 0
0.5694 5.1830 10.0000 27 227 0
4.4673 2.7050 10.0000 27 227 0
-2.3075 4.6912 10.0000 27 227 0
2.3236 4.6924 10.0000 27 227 0
-4.4765 2.7269 10.0000 27 227 0
-0.5595 5.2200 10.0000 27 227 0
3.8089 3.6250 10.0000 27 227 0
-3.2823 4.1149 10.0000 27 227 0
1.2715 5.1163 10.0000 27 227 0
-4.9910 1.7147 10.0000 27 227 0
4.8418 2.1062 10.0000 27 227 0
-1.6775 5.0123 10.0000 27 227 0
2.9626 4.3872 10.0000 27 227 0
-4.1163 3.3374 10.0000 27 227 0
0.1454 5.3055 10.0000 28 226 0
4.3031 3.1209 10.0000 28 226 0
-2.7319 4.5663 10.0000 28 226 0
1.9607 4.9555 10.0000 28 226 0
-4.7681 2.3927 10.0000 28 226 0
-1.0079 5.2470 10.0000 28 226 0
3.5570 3.9978 10.0000 28 226 0
-3.6760 3.8962 10.0000 28 226 0
0.8577 5.2958 10.0000 28 226 0
4.7323 2.5444 10.0000 28 226 0
-2.1240 4.9412 10.0000 28 226 0
2.6340 4.6986 10.0000 28 226 0
-4.4555 3.0369 10.0000 28 226 0
-0.3002 5.3918 10.0000 28 226 0
4.1032 3.5233 10.0000 29 225 0
-3.1551 4.3993 10.0000 29 225 0
1.5750 5.1881 10.0000 29 225 0
-1.4593 5.2359 10.0000 29 225 0
3.2731 4.3497 10.0000 29 225 0
-4.0516 3.6436 10.0000 29 225 0
0.4282 5.4403 10.0000 29 225 0
4.5824 2.9783 10.0000 29 225 0
-2.5650 4.8321 10.0000 29 225 0
2.2736 4.9848 10.0000 29 225 0
-4.7695 2.7071 10.0000 29 225 0
-0.7590 5.4396 10.0000 29 225 0
3.8616 3.9170 10.0000 30 224 0
-3.5687 4.1927 10.0000 30 224 0
1.1587 5.3908 10.0000 30 224 0
4.9910 2.3629 10.0000 30 224 0
-1.9204 5.1831 10.0000 30 224 0
2.9501 4.6839 10.0000 30 224 0
-4.4130 3.3507 10.0000 30 224 0
-0.0248 5.5490 10.0000 30 224 0
4.3956 3.4000 10.0000 30 224 0
-3.0065 4.6800 10.0000 30 224 0
1.8886 5.2407 10.0000 30 224 0
-1.2222 5.4486 10.0000 30 224 0
3.5822 4.2941 10.0000 30 224 0
-3.9652 3.9508 10.0000 30 224 0
0.7195 5.5592 10.0000 31 223 0
4.8571 2.8145 10.0000 31 223 0
-2.3823 5.0889 10.0000 31 223 0
2.5938 4.9936 10.0000 31 223 0
-4.7528 3.0224 10.0000 31 223 0
-0.4928 5.6189 10.0000 31 223 0
4.1660 3.8145 10.0000 31 223 0
-3.4398 4.4871 10.0000 31 223 0
1.4713 5.4674 10.0000 31 223 0
-1.6971 5.4156 10.0000 31 223 0
3.2708 4.6478 10.0000 31 223 0
-4.3489 3.6672 10.0000 31 223 0
0.2658 5.6905 10.0000 32 222 0
4.6850 3.2550 10.0000 32 222 0
-2.8366 4.9557 10.0000 32 222 0
2.2111 5.2733 10.0000 32 222 0
-0.9669 5.6493 10.0000 32 222 0
3.8971 4.2135 10.0000 32 222 0
-3.8570 4.2576 10.0000 32 222 0
1.0291 5.6600 10.0000 32 222 0
-2.1746 5.3404 10.0000 32 222 0
2.9201 4.9814 10.0000 32 222 0
-4.7120 3.3466 10.0000 32 222 0
-0.2102 5.7837 10.0000 32 222 0
4.4689 3.6901 10.0000 33 221 0
-3.2892 4.7782 10.0000 33 221 0
1.7943 5.5248 10.0000 33 221 0
-1.4547 5.6375 10.0000 33 221 0
3.5947 4.5901 10.0000 33 221 0
-4.2629 3.9850 10.0000 33 221 0
0.5707 5.8155 10.0000 33 221 0
4.9698 3.0887 10.0000 33 221 0
-2.6458 5.2250 10.0000 33 221 0
2.5413 5.2855 10.0000 33 221 0
-0.6941 5.8368 10.0000 33 221 0
4.2123 4.1111 10.0000 34 220 0
-3.7268 4.5626 10.0000 34 220 0
1.3507 5.7425 10.0000 34 220 0
-1.9468 5.5827 10.0000 34 220 0
3.2513 4.9478 10.0000 34 220 0
-4.6494 3.6738 10.0000 34 220 0
0.0879 5.9330 10.0000 34 220 0
4.7690 3.5439 10.0000 34 220 0
-3.1172 5.0645 10.0000 34 220 0
2.1265 5.5622 10.0000 34 220 0
-1.1937 5.8475 10.0000 34 220 0
3.9203 4.5104 10.0000 34 220 0
-4.1549 4.3027 10.0000 35 219 0
0.8889 5.9229 10.0000 35 219 0
-2.4343 5.4867 10.0000 35 219 0
2.8728 5.2794 10.0000 35 219 0
-0.4105 6.0096 10.0000 35 219 0
4.5262 3.9866 10.0000 35 219 0
-3.5797 4.8610 10.0000 35 219 0
1.6830 5.8057 10.0000 35 219 0
-1.6997 5.8146 10.0000 35 219 0
3.5859 4.8924 10.0000 35 219 0
-4.5649 4.0025 10.0000 36 218 0
0.4007 6.0658 10.0000 36 218 0
-2.9239 5.3447 10.0000 36 218 0
2.4668 5.5791 10.0000 36 218 0
-0.9150 6.0444 10.0000 36 218 0
4.2465 4.4086 10.0000 36 218 0
-4.0248 4.6189 10.0000 36 218 0
1.2194 6.0119 10.0000 36 218 0
-2.2025 5.7394 10.0000 36 218 0
3.2147 5.2492 10.0000 36 218 0
-4.9494 3.6683 10.0000 37 217 0
-0.1052 6.1676 10.0000 37 217 0
4.8376 3.8400 10.0000 37 217 0
-3.4063 5.1585 10.0000 37 217 0
2.0250 5.8489 10.0000 37 217 0
-1.4337 6.0347 10.0000 37 217 0
3.9228 4.8149 10.0000 37 217 0
-4.4581 4.3315 10.0000 37 217 0
0.7272 6.1811 10.0000 37 217 0
-2.7096 5.6175 10.0000 37 217 0
2.8140 5.5747 10.0000 37 217 0
-0.6190 6.2271 10.0000 38 216 0
4.5718 4.2846 10.0000 38 216 0
-3.8727 4.9323 10.0000 38 216 0
1.5611 6.0816 10.0000 38 216 0
-1.9510 5.9818 10.0000 38 216 0
3.5605 5.1971 10.0000 38 216 0
-4.8708 4.0036 10.0000 38 216 0
0.2152 6.3092 10.0000 38 216 0
-3.2113 5.4502 10.0000 38 216 0
2.3755 5.8715 10.0000 38 216 0
-1.1494 6.2420 10.0000 39 215 0
4.2605 4.7150 10.0000 39 215 0
-4.3289 4.6594 10.0000 39 215 0
1.0664 6.2779 10.0000 39 215 0
-2.4748 5.8815 10.0000 39 215 0
3.1668 5.5487 10.0000 39 215 0
-0.3068 6.3945 10.0000 39 215 0
4.8908 4.1430 10.0000 39 215 0
-3.6984 5.2415 10.0000 39 215 0
1.9069 6.1332 10.0000 39 215 0
-1.6863 6.2110 10.0000 40 214 0
3.9088 5.1227 10.0000 40 214 0
-4.7660 4.3443 10.0000 40 214 0
0.5498 6.4333 10.0000 40 214 0
-2.9951 5.7348 10.0000 40 214 0
2.7333 5.8727 10.0000 40 214 0
-0.8538 6.4343 10.0000 40 214 0
4.5977 4.5926 10.0000 40 214 0
-4.1822 4.9807 10.0000 40 214 0
1.4173 6.3555 10.0000 40 214 0
-2.2197 6.1354 10.0000 41 213 0
3.5184 5.5040 10.0000 41 213 0
0.0146 6.5455 10.0000 41 213 0
-3.5077 5.5417 10.0000 41 213 0
2.2736 6.1602 10.0000 41 213 0
-1.3907 6.4307 10.0000 41 213 0
4.2584 5.0257 10.0000 41 213 0
-4.6341 4.6888 10.0000 41 213 0
0.8975 6.5389 10.0000 41 213 0
-2.7578 6.0108 10.0000 42 212 0
3.0913 5.8551 10.0000 42 212 0
-0.5353 6.6125 10.0000 42 212 0
4.9330 4.4475 10.0000 42 212 0
-4.0086 5.3024 10.0000 42 212 0
1.7787 6.4129 10.0000 42 212 0
-1.9450 6.3780 10.0000 42 212 0
3.8785 5.4335 10.0000 42 212 0
0.3569 6.6793 10.0000 42 212 0
-3.2902 5.8386 10.0000 43 211 0
2.6420 6.1676 10.0000 43 211 0
-1.0832 6.6348 10.0000 43 211 0
4.6079 4.9058 10.0000 43 211 0
-4.4837 5.0265 10.0000 43 211 0
1.2573 6.6252 10.0000 43 211 0
-2.4999 6.2770 10.0000 43 211 0
3.4599 5.8124 10.0000 43 211 0
-0.2008 6.7743 10.0000 44 210 0
-3.8126 5.6189 10.0000 44 210 0
2.1495 6.4493 10.0000 44 210 0
-1.6510 6.6080 10.0000 44 210 0
4.2402 5.3402 10.0000 44 210 0
-4.9491 4.6983 10.0000 44 210 0
0.7129 6.7946 10.0000 44 210 0
-3.0511 6.1273 10.0000 44 210 0
3.0168 6.1529 10.0000 44 210 0
-0.7584 6.8237 10.0000 45 209 0
4.9558 4.7629 10.0000 45 209 0
-4.3105 5.3606 10.0000 45 209 0
1.6282 6.6912 10.0000 45 209 0
-2.2217 6.5320 10.0000 45 209 0
3.8319 5.7469 10.0000 45 209 0
0.1489 6.9187 10.0000 45 209 0
-3.5945 5.9287 10.0000 45 209 0
2.5285 6.4642 10.0000 45 209 0
-1.3386 6.8240 10.0000 46 208 0
4.6022 5.2237 10.0000 46 208 0
-4.8010 5.0488 10.0000 46 208 0
1.0815 6.8905 10.0000 46 208 0
-2.7910 6.4063 10.0000 46 208 0
3.3969 6.1156 10.0000 46 208 0
-0.4170 6.9962 10.0000 46 208 0
-4.1145 5.6898 10.0000 46 208 0
2.0090 6.7362 10.0000 47 207 0
-1.9239 6.7745 10.0000 47 207 0
4.2059 5.6582 10.0000 47 207 0
0.5128 7.0445 10.0000 47 207 0
-3.3544 6.2306 10.0000 47 207 0
2.9144 6.4567 10.0000 47 207 0
-1.0082 7.0250 10.0000 47 207 0
4.9631 5.0838 10.0000 47 207 0
-4.6296 5.3961 10.0000 47 207 0
1.4617 6.9660 10.0000 48 206 0
-2.5101 6.6743 10.0000 48 206 0
3.7808 6.0551 10.0000 48 206 0
-0.0600 7.1513 10.0000 48 206 0
-3.8959 6.0127 10.0000 48 206 0
2.3986 6.7594 10.0000 48 206 0
-1.6070 7.0033 10.0000 48 206 0
4.5807 5.5460 10.0000 49 205 0
0.8900 7.1509 10.0000 49 205 0
-3.0927 6.5231 10.0000 49 205 0
3.3061 6.4263 10.0000 49 205 0
-0.6608 7.2097 10.0000 49 205 0
-4.4351 5.7388 10.0000 49 205 0
1.8524 7.0204 10.0000 49 205 0
-2.2090 6.9301 10.0000 49 205 0
4.1555 5.9792 10.0000 50 204 0
0.2976 7.2884 10.0000 50 204 0
-3.6673 6.3206 10.0000 50 204 0
2.7957 6.7600 10.0000 50 204 0
-1.2716 7.2171 10.0000 50 204 0
4.9548 5.4099 10.0000 50 204 0
-4.9553 5.4166 10.0000 50 204 0
1.2793 7.2369 10.0000 50 204 0
-2.8097 6.8048 10.0000 51 203 0
3.7022 6.3725 10.0000 51 203 0
-0.2971 7.3769 10.0000 51 203 0
-4.2174 6.0756 10.0000 51 203 0
2.2524 7.0528 10.0000 51 203 0
-1.8882 7.1723 10.0000 51 203 0
4.5433 5.8721 10.0000 51 203 0
0.6830 7.4061 10.0000 52 202 0
-3.4047 6.6271 10.0000 52 202 0
3.1990 6.7375 10.0000 52 202 0
-0.9186 7.4147 10.0000 52 202 0
-4.7630 5.7732 10.0000 52 202 0
1.6797 7.3015 10.0000 52 202 0
-2.5059 7.0745 10.0000 52 202 0
4.1013 6.2948 10.0000 52 202 0
0.0820 7.5256 10.0000 53 201 0
-3.9768 6.4049 10.0000 53 201 0
2.6605 7.0624 10.0000 53 201 0
-1.5484 7.3997 10.0000 53 201 0
4.9309 5.7408 10.0000 53 201 0
1.0812 7.5033 10.0000 53 201 0
-3.1203 6.9231 10.0000 53 201 0
3.6072 6.6912 10.0000 54 200 0
-0.5486 7.5949 10.0000 54 200 0
-4.5470 6.1242 10.0000 54 200 0
2.0901 7.3439 10.0000 54 200 0
-2.1819 7.3308 10.0000 54 200 0
4.5020 6.1929 10.0000 54 200 0
0.4756 7.6547 10.0000 54 200 0
-3.7135 6.7254 10.0000 55 199 0
3.0755 7.0486 10.0000 55 199 0
-1.1902 7.6109 10.0000 55 199 0
1.4911 7.5790 10.0000 55 199 0
-2.8145 7.2073 10.0000 55 199 0
4.0191 6.6208 10.0000 55 199 0
-0.1626 7.7565 10.0000 56 198 0
-4.3076 6.4682 10.0000 56 198 0
2.5091 7.3634 10.0000 56 198 0
-1.8381 7.5723 10.0000 56 198 0
4.9031 6.0664 10.0000 56 198 0
0.8825 7.7631 10.0000 56 198 0
-3.4277 7.0356 10.0000 56 198 0
3.4960 7.0108 10.0000 57 197 0
-0.8144 7.8048 10.0000 57 197 0
-4.8843 6.1585 10.0000 57 197 0
1.9115 7.6324 10.0000 57 197 0
-2.4877 7.4783 10.0000 57 197 0
4.4332 6.5256 10.0000 57 197 0
0.2385 7.8985 10.0000 57 197 0
-4.0448 6.8037 10.0000 58 196 0
2.9356 7.3592 10.0000 58 196 0
-1.4753 7.7979 10.0000 58 196 0
1.3018 7.8500 10.0000 58 196 0
-3.1200 7.3343 10.0000 58 196 0
3.9207 6.9484 10.0000 58 196 0
-0.4219 7.9802 10.0000 59 195 0
-4.6468 6.5175 10.0000 59 195 0
2.3414 7.6626 10.0000 59 195 0
-2.1406 7.7347 10.0000 59 195 0
4.8481 6.4055 10.0000 59 195 0
0.6537 8.0199 10.0000 59 195 0
-3.7590 7.1293 10.0000 59 195 0
3.3683 7.3307 10.0000 60 194 0
-1.0943 8.0062 10.0000 60 194 0
1.7169 7.9177 10.0000 60 194 0
-2.8055 7.6145 10.0000 60 194 0
4.3482 6.8609 10.0000 60 194 0
-0.0136 8.1359 10.0000 60 194 0
-4.3853 6.8685 10.0000 61 193 0
2.7794 7.6688 10.0000 61 193 0
-1.7738 7.9753 10.0000 61 193 0
1.0820 8.1195 10.0000 61 193 0
-3.4505 7.4436 10.0000 61 193 0
3.8058 7.2772 10.0000 61 193 0
-0.6958 8.1961 10.0000 62 192 0
-4.9941 6.5525 10.0000 62 192 0
2.1574 7.9595 10.0000 62 192 0
-2.4556 7.8864 10.0000 62 192 0
4.7771 6.7480 10.0000 62 192 0
0.4095 8.2709 10.0000 62 192 0
-4.1002 7.2099 10.0000 63 191 0
3.2242 7.6505 10.0000 63 191 0
-1.3880 8.1987 10.0000 63 191 0
1.5223 8.1964 10.0000 63 191 0
-3.1197 7.7451 10.0000 63 191 0
4.2468 7.1984 10.0000 63 191 0
-0.2807 8.3663 10.0000 64 190 0
-4.7347 6.9194 10.0000 64 190 0
2.6067 7.9771 10.0000 64 190 0
-2.0853 8.1426 10.0000 64 190 0
0.8465 8.3840 10.0000 64 190 0
-3.7917 7.5403 10.0000 64 190 0
3.6745 7.6069 10.0000 65 189 0
-0.9839 8.4038 10.0000 65 189 0
1.9733 8.2497 10.0000 65 189 0
-2.7672 8.0324 10.0000 65 189 0
4.6898 7.0936 10.0000 65 189 0
0.1500 8.5157 10.0000 66 188 0
-4.4510 7.2770 10.0000 66 188 0
3.0636 7.9698 10.0000 66 188 0
-1.6953 8.3819 10.0000 66 188 0
1.2961 8.4744 10.0000 66 188 0
-3.4602 7.8582 10.0000 66 188 0
4.1290 7.5375 10.0000 67 187 0
-0.5626 8.5892 10.0000 67 187 0
2.4338 8.2786 10.0000 67 187 0
-2.3935 8.3043 10.0000 67 187 0
0.5952 8.6432 10.0000 67 187 0
-4.1432 7.6240 10.0000 68 186 0
3.5266 7.9369 10.0000 68 186 0
-1.2862 8.6029 10.0000 68 186 0
1.7573 8.5410 10.0000 68 186 0
-3.1062 8.1622 10.0000 68 186 0
4.5861 7.4417 10.0000 69 185 0
-0.1248 8.7539 10.0000 69 185 0
-4.8110 7.3304 10.0000 69 185 0
2.9026 8.2823 10.0000 69 185 0
-2.0160 8.5553 10.0000 69 185 0
1.0540 8.7478 10.0000 70 184 0
-3.8117 7.9589 10.0000 70 184 0
3.9945 7.8777 10.0000 70 184 0
-0.8591 8.8042 10.0000 70 184 0
2.2288 8.5829 10.0000 70 184 0
-2.7302 8.4510 10.0000 70 184 0
0.3284 8.8966 10.0000 71 183 0
-4.5047 7.6944 10.0000 71 183 0
3.3621 8.2667 10.0000 71 183 0
-1.6025 8.7928 10.0000 71 183 0
1.5251 8.8285 10.0000 72 182 0
-3.4569 8.2802 10.0000 72 182 0
4.4658 7.7919 10.0000 72 182 0
-0.4146 8.9849 10.0000 72 182 0
2.7093 8.5994 10.0000 72 182 0
-2.3330 8.7230 10.0000 73 181 0
0.7959 9.0162 10.0000 73 181 0
-4.1739 8.0467 10.0000 73 181 0
3.8434 8.2187 10.0000 73 181 0
-1.1701 9.0109 10.0000 73 181 0
2.0073 8.8844 10.0000 74 180 0
-3.0794 8.5864 10.0000 74 180 0
4.9390 7.6788 10.0000 74 180 0
0.0460 9.1435 10.0000 74 180 0
-4.8760 7.7511 10.0000 74 180 0
3.1975 8.5896 10.0000 74 180 0
-1.9151 8.9770 10.0000 75 179 0
1.2766 9.1119 10.0000 75 179 0
-3.8191 8.3858 10.0000 75 179 0
4.3288 8.1437 10.0000 75 179 0
-0.7195 9.2083 10.0000 75 179 0
2.4993 8.9144 10.0000 76 178 0
-2.6797 8.8762 10.0000 76 178 0
0.5219 9.2791 10.0000 76 178 0
-4.5467 8.1213 10.0000 76 178 0
3.6920 8.5528 10.0000 76 178 0
-1.4775 9.2116 10.0000 77 177 0
1.7692 9.1824 10.0000 77 177 0
-3.4407 8.7101 10.0000 77 177 0
4.8169 8.0409 10.0000 77 177 0
-0.2518 9.3836 10.0000 78 176 0
2.9999 8.9180 10.0000 78 176 0
-2.2586 9.1481 10.0000 78 176 0
1.0118 9.3905 10.0000 78 176 0
-4.1925 8.4787 10.0000 79 175 0
4.1914 8.4884 10.0000 79 175 0
-1.0209 9.4255 10.0000 79 175 0
2.2726 9.2270 10.0000 79 175 0
-3.0393 9.0182 10.0000 79 175 0
0.2319 9.5359 10.0000 80 174 0
-4.9296 8.1823 10.0000 80 174 0
3.5076 8.8942 10.0000 80 174 0
-1.8167 9.4008 10.0000 80 174 0
1.5145 9.4766 10.0000 80 174 0
-3.8139 8.8216 10.0000 81 173 0
4.6778 8.4050 10.0000 81 173 0
-0.5651 9.6164 10.0000 81 173 0
2.7853 9.2447 10.0000 81 173 0
-2.6155 9.3087 10.0000 82 172 0
0.7307 9.6638 10.0000 82 172 0
-4.5768 8.5584 10.0000 82 172 0
4.0211 8.8424 10.0000 82 172 0
-1.3550 9.6328 10.0000 82 172 0
2.0289 9.5366 10.0000 83 171 0
-3.4115 9.1486 10.0000 83 171 0
-0.0738 9.7861 10.0000 83 171 0
3.3061 9.2348 10.0000 84 170 0
-2.1701 9.5801 10.0000 84 170 0
1.2432 9.7664 10.0000 84 170 0
-4.1989 8.9205 10.0000 84 170 0
4.5387 8.7619 10.0000 84 170 0
-0.8744 9.8430 10.0000 85 169 0
2.5536 9.5694 10.0000 85 169 0
-2.9857 9.4583 10.0000 85 169 0
0.4333 9.9314 10.0000 85 169 0
-4.9719 8.6245 10.0000 86 168 0
3.8334 9.1965 10.0000 86 168 0
-1.7039 9.8310 10.0000 86 168 0
1.7683 9.8426 10.0000 86 168 0
-3.7961 9.2670 10.0000 86 168 0
-0.3758 10.0300 10.0000 87 167 0
3.0872 9.5742 10.0000 87 167 0
-2.5374 9.7491 10.0000 87 167 0
0.9552 10.0513 10.0000 88 166 0
-4.5952 9.0062 10.0000 88 166 0
4.3658 9.1291 10.0000 88 166 0
-1.2178 10.0601 10.0000 88 166 0
2.3047 9.8914 10.0000 89 165 0
-3.3691 9.5964 10.0000 89 165 0
0.1396 10.1925 10.0000 89 165 0
3.6283 9.5503 10.0000 89 165 0
-2.0674 10.0196 10.0000 90 164 0
1.4907 10.1446 10.0000 90 164 0
-4.1929 9.3728 10.0000 90 164 0
4.9018 9.0321 10.0000 90 164 0
-0.7128 10.2661 10.0000 91 163 0
2.8509 9.9120 10.0000 91 163 0
-2.9186 9.9072 10.0000 91 163 0
0.6707 10.3295 10.0000 91 163 0
-4.9851 9.0882 10.0000 92 162 0
4.1754 9.4969 10.0000 92 162 0
-1.5764 10.2684 10.0000 92 162 0
2.0384 10.2103 10.0000 92 162 0
-3.7654 9.7226 10.0000 93 161 0
-0.1898 10.4477 10.0000 93 161 0
3.4056 9.9034 10.0000 93 161 0
-2.4453 10.1980 10.0000 93 161 0
1.1960 10.4420 10.0000 94 160 0
-4.6017 9.4655 10.0000 94 160 0
4.7270 9.4134 10.0000 94 160 0
-1.0654 10.4942 10.0000 94 160 0
2.5970 10.2475 10.0000 95 159 0
-3.3134 10.0541 10.0000 95 159 0
0.3498 10.6036 10.0000 95 159 0
3.9672 9.8649 10.0000 96 158 0
-1.9501 10.4673 10.0000 96 158 0
1.7547 10.5255 10.0000 96 158 0
-4.1745 9.8363 10.0000 96 158 0
-0.5356 10.6955 10.0000 97 157 0
3.1650 10.2552 10.0000 97 157 0
-2.8376 10.3658 10.0000 97 157 0
0.9051 10.7326 10.0000 98 156 0
4.5342 9.7958 10.0000 98 156 0
-1.4338 10.7136 10.0000 98 156 0
2.3253 10.5802 10.0000 99 155 0
-3.7218 10.1891 10.0000 99 155 0
0.0122 10.8712 10.0000 99 155 0
3.7409 10.2326 10.0000 99 155 0
-2.3388 10.6562 10.0000 100 154 0
1.4534 10.8366 10.0000 100 154 0
-4.5962 9.9370 10.0000 100 154 0
-0.9189 10.9338 10.0000 101 153 0
2.9271 10.5995 10.0000 101 153 0
-3.2236 10.5287 10.0000 101 153 0
0.5765 11.0200 10.0000 102 152 0
4.3233 10.1789 10.0000 102 152 0
-1.8179 10.9238 10.0000 102 152 0
2.0357 10.9097 10.0000 103 151 0
-4.1435 10.3117 10.0000 103 151 0
-0.3641 11.1312 10.0000 103 151 0
3.5172 10.5926 10.0000 104 150 0
-2.7213 10.8399 10.0000 104 150 0
1.1562 11.1406 10.0000 104 150 0
4.9106 10.0935 10.0000 104 150 0
-1.2758 11.1672 10.0000 105 149 0
2.6296 10.9528 10.0000 105 149 0
-3.6649 10.6672 10.0000 105 149 0
0.2085 11.3016 10.0000 106 148 0
4.1147 10.5542 10.0000 106 148 0
-2.1959 11.1286 10.0000 106 148 0
1.7500 11.2320 10.0000 107 147 0
-4.5580 10.4304 10.0000 107 147 0
-0.7137 11.3849 10.0000 107 147 0
3.2335 10.9649 10.0000 108 146 0
-3.1610 11.0020 10.0000 108 146 0
0.7978 11.4439 10.0000 108 146 0
4.7180 10.4836 10.0000 109 145 0
-1.6481 11.3931 10.0000 109 145 0
2.3565 11.2931 10.0000 109 145 0
-4.0784 10.8078 10.0000 109 145 0
-0.1326 11.5757 10.0000 110 144 0
3.8461 10.9451 10.0000 110 144 0
-2.6329 11.3144 10.0000 110 144 0
1.4023 11.5568 10.0000 111 143 0
-1.0792 11.6320 10.0000 111 143 0
2.9741 11.3228 10.0000 112 142 0
-3.5726 11.1648 10.0000 112 142 0
0.4661 11.7382 10.0000 112 142 0
4.4656 10.8926 10.0000 113 141 0
-2.0812 11.6030 10.0000 113 141 0
2.0207 11.6391 10.0000 113 141 0
-4.5481 10.9196 10.0000 114 140 0
-0.4902 11.8439 10.0000 114 140 0
3.6013 11.3202 10.0000 115 139 0
-3.0412 11.4997 10.0000 115 139 0
1.0813 11.8712 10.0000 115 139 0
-1.5071 11.8661 10.0000 116 138 0
2.6515 11.6899 10.0000 116 138 0
-4.0424 11.3015 10.0000 116 138 0
0.1176 12.0275 10.0000 117 137 0
4.2367 11.2845 10.0000 117 137 0
-2.4852 11.8109 10.0000 117 137 0
1.7116 11.9734 10.0000 118 136 0
-4.9888 11.0358 10.0000 118 136 0
-0.9116 12.1024 10.0000 119 135 0
3.2932 11.7080 10.0000 119 135 0
-3.5099 11.6616 10.0000 119 135 0
0.7431 12.1815 10.0000 120 134 0
4.8784 11.2148 10.0000 120 134 0
-1.9056 12.0968 10.0000 120 134 0
2.3554 12.0437 10.0000 121 133 0
-4.4826 11.4412 10.0000 121 133 0
-0.2959 12.3104 10.0000 121 133 0
3.9442 11.6926 10.0000 122 132 0
-2.9516 11.9984 10.0000 122 132 0
1.3849 12.3045 10.0000 122 132 0
-1.3033 12.3560 10.0000 123 131 0
3.0113 12.0810 10.0000 123 131 0
-3.9485 11.8253 10.0000 124 130 0
0.3387 12.4887 10.0000 124 130 0
4.6029 11.6427 10.0000 125 129 0
-2.3682 12.3102 10.0000 125 129 0
2.0414 12.3953 10.0000 125 129 0
-4.9369 11.5695 10.0000 125 129 0
-0.6797 12.5869 10.0000 126 128 0
3.6778 12.0844 10.0000 126 128 0
-3.3873 12.1862 10.0000 127 127 0
0.9909 12.6360 10.0000 127 127 0
-1.7610 12.5955 10.0000 128 126 0
2.6626 12.4634 10.0000 128 126 0
-4.4486 11.9608 10.0000 128 126 0
-0.0358 12.7880 10.0000 129 125 0
4.3530 12.0529 10.0000 129 125 0
-2.7998 12.5225 10.0000 129 125 0
1.6594 12.7510 10.0000 130 124 0
-1.1309 12.8526 10.0000 131 123 0
3.3441 12.4893 10.0000 131 123 0
-3.8868 12.3489 10.0000 131 123 0
0.6270 12.9581 10.0000 132 122 0
-2.1872 12.8323 10.0000 132 122 0
2.3425 12.8325 10.0000 133 121 0
-4.9174 12.1006 10.0000 133 121 0
-0.4791 13.0801 10.0000 134 120 0
4.0357 12.4799 10.0000 134 120 0
-3.2974 12.7127 10.0000 134 120 0
1.3073 13.0957 10.0000 135 119 0
-1.5503 13.1141 10.0000 135 119 0
3.0388 12.8793 10.0000 136 118 0
-4.3543 12.5144 10.0000 136 118 0
0.1930 13.2765 10.0000 137 117 0
4.7359 12.4342 10.0000 137 117 0
-2.6812 13.0503 10.0000 137 117 0
2.0037 13.1995 10.0000 138 116 0
-0.8905 13.3663 10.0000 138 116 0
3.7466 12.8905 10.0000 139 115 0
-3.7623 12.9041 10.0000 139 115 0
0.8841 13.4403 10.0000 140 114 0
-2.0395 13.3603 10.0000 140 114 0
2.7145 13.2684 10.0000 141 113 0
-4.8374 12.6687 10.0000 141 113 0
-0.2089 13.5875 10.0000 142 112 0
4.4642 12.8648 10.0000 142 112 0
-3.1423 13.2681 10.0000 142 112 0
1.5927 13.5703 10.0000 143 111 0
-1.3733 13.6408 10.0000 143 111 0
3.4381 13.3011 10.0000 144 110 0
-4.2436 13.0852 10.0000 144 110 0
0.4931 13.7760 10.0000 145 109 0
-2.4952 13.6045 10.0000 145 109 0
2.3173 13.6651 10.0000 146 108 0
-0.6838 13.8903 10.0000 147 107 0
4.1729 13.2966 10.0000 147 107 0
-3.6204 13.4763 10.0000 147 107 0
1.2139 13.9304 10.0000 148 106 0
-1.8223 13.9117 10.0000 149 105 0
3.0563 13.7235 10.0000 149 105 0
-4.7932 13.2369 10.0000 149 105 0
0.0276 14.1073 10.0000 150 104 0
4.9170 13.2540 10.0000 150 104 0
-2.9688 13.8402 10.0000 151 103 0
1.9523 14.0495 10.0000 151 103 0
-1.1246 14.1880 10.0000 152 102 0
3.8080 13.7443 10.0000 152 102 0
-4.1693 13.6584 10.0000 153 101 0
0.7596 14.2901 10.0000 153 101 0
-2.2898 14.1750 10.0000 154 100 0
2.7064 14.1318 10.0000 154 100 0
-0.4035 14.4317 10.0000 155 99 0
4.5706 13.7264 10.0000 156 98 0
-3.5154 14.0532 10.0000 156 98 0
1.5107 14.4375 10.0000 157 97 0
-1.5846 14.4790 10.0000 157 97 0
3.4747 14.1762 10.0000 158 96 0
-4.6830 13.8442 10.0000 158 96 0
0.3397 14.6413 10.0000 159 95 0
-2.8325 14.4192 10.0000 159 95 0
2.2792 14.5479 10.0000 160 94 0
-0.9120 14.7471 10.0000 161 93 0
4.2554 14.1814 10.0000 161 93 0
-4.0262 14.2682 10.0000 162 92 0
1.1035 14.8152 10.0000 162 92 0
-2.1218 14.7548 10.0000 163 91 0
3.0635 14.6201 10.0000 163 91 0
-0.1591 14.9874 10.0000 164 90 0
-3.3389 14.6638 10.0000 165 89 0
1.8863 14.9520 10.0000 166 88 0
-1.3843 15.0581 10.0000 166 88 0
3.8619 14.6528 10.0000 167 87 0
-4.6120 14.4550 10.0000 167 87 0
0.6161 15.1921 10.0000 168 86 0
-2.6222 15.0292 10.0000 169 85 0
2.6865 15.0502 10.0000 169 85 0
-0.6215 15.3274 10.0000 170 84 0
4.6726 14.6448 10.0000 171 83 0
-3.9228 14.8839 10.0000 171 83 0
1.4121 15.3596 10.0000 171 83 0
-1.8771 15.3626 10.0000 172 82 0
3.5024 15.1085 10.0000 173 81 0
0.1653 15.5611 10.0000 174 80 0
-3.2024 15.2830 10.0000 175 79 0
2.2273 15.4883 10.0000 175 79 0
-1.1050 15.6620 10.0000 176 78 0
4.3321 15.1257 10.0000 177 77 0
-4.4689 15.1074 10.0000 177 77 0
0.9746 15.7574 10.0000 177 77 0
-2.4519 15.6504 10.0000 178 76 0
3.0600 15.5769 10.0000 179 75 0
-0.3072 15.9258 10.0000 180 74 0
-3.7442 15.5384 10.0000 181 73 0
1.8048 15.9148 10.0000 181 73 0
-1.6724 15.9843 10.0000 182 72 0
3.9084 15.6239 10.0000 183 71 0
0.5148 16.1522 10.0000 184 70 0
-2.9878 15.9381 10.0000 185 69 0
2.6541 16.0317 10.0000 185 69 0
-0.8655 16.2826 10.0000 186 68 0
4.7706 15.6280 10.0000 187 67 0
-4.3684 15.7675 10.0000 187 67 0
1.3595 16.3395 10.0000 188 66 0
-2.2006 16.3044 10.0000 189 65 0
3.5210 16.1067 10.0000 189 65 0
-0.0323 16.5436 10.0000 190 64 0
-3.6086 16.2036 10.0000 191 63 0
2.2251 16.4862 10.0000 192 62 0
-1.3841 16.6355 10.0000 193 61 0
4.4033 16.1384 10.0000 193 61 0
-4.9530 16.0014 10.0000 193 61 0
0.8254 16.7656 10.0000 194 60 0
-2.8161 16.6068 10.0000 195 59 0
3.1100 16.5906 10.0000 196 58 0
-0.5396 16.9293 10.0000 197 57 0
-4.1891 16.4721 10.0000 198 56 0
1.7062 16.9469 10.0000 198 56 0
-1.9922 16.9750 10.0000 199 55 0
4.0123 16.6513 10.0000 200 54 0
0.3314 17.1840 10.0000 201 53 0
-3.3907 16.9102 10.0000 202 52 0
2.6083 17.0857 10.0000 202 52 0
-1.1383 17.3062 10.0000 203 51 0
4.8650 16.6859 10.0000 204 50 0
-4.8573 16.7123 10.0000 204 50 0
1.2274 17.3979 10.0000 205 49 0
-2.5590 17.3137 10.0000 206 48 0
3.5299 17.1804 10.0000 207 47 0
-0.2557 17.5986 10.0000 208 46 0
-4.0558 17.1899 10.0000 209 45 0
2.1467 17.5691 10.0000 209 45 0
-1.6952 17.6805 10.0000 210 44 0
4.4690 17.2297 10.0000 211 43 0
0.6539 17.8501 10.0000 212 42 0
-3.2188 17.6333 10.0000 213 41 0
3.0874 17.6960 10.0000 214 40 0
-0.8008 18.0086 10.0000 215 39 0
-4.6787 17.4742 10.0000 216 38 0
1.5890 18.0590 10.0000 217 37 0
-2.3476 18.0405 10.0000 218 36 0
4.0477 17.7770 10.0000 218 36 0
0.1227 18.2958 10.0000 219 35 0
-3.8358 17.9556 10.0000 220 34 0
2.5479 18.2234 10.0000 221 33 0
-1.4436 18.4092 10.0000 222 32 0
1.0739 18.5403 10.0000 224 30 0
-2.9566 18.4012 10.0000 225 29 0
3.5287 18.3416 10.0000 226 28 0
-0.5081 18.7374 10.0000 227 27 0
-4.4782 18.2701 10.0000 228 26 0
2.0509 18.7402 10.0000 229 25 0
-2.0424 18.8087 10.0000 230 24 0
4.5293 18.4119 10.0000 231 23 0
0.4574 19.0230 10.0000 232 22 0
-3.5920 18.7557 10.0000 233 21 0
3.0520 18.8936 10.0000 234 20 0
-1.0945 19.1759 10.0000 235 19 0
1.4512 19.2640 10.0000 237 17 0
-2.6685 19.2035 10.0000 238 16 0
4.0753 18.9987 10.0000 239 15 0
-0.1144 19.5006 10.0000 240 14 0
-4.3291 19.0864 10.0000 241 13 0
2.4715 19.4584 10.0000 242 12 0
-1.7091 19.6113 10.0000 243 11 0
0.8963 19.7806 10.0000 245 9 0
-3.3992 19.5799 10.0000 246 8 0
3.5165 19.6043 10.0000 247 7 0
-0.7150 19.9768 10.0000 248 6 0
4.5842 19.6998 10.0000 252 2 0
-4.0838 19.9611 10.0000 255 0 0
